<?xml version="1.0" standalone="no"?>
<!DOCTYPE svg PUBLIC "-//W3C//DTD SVG 20010904//EN"
 "http://www.w3.org/TR/2001/REC-SVG-20010904/DTD/svg10.dtd">
<svg version="1.0" xmlns="http://www.w3.org/2000/svg"
 width="16.000000pt" height="16.000000pt" viewBox="0 0 16.000000 16.000000"
 preserveAspectRatio="xMidYMid meet">
<metadata>
Created by potrace 1.11, written by Peter Selinger 2001-2013
</metadata>
<g transform="translate(0.000000,16.000000) scale(0.002676,-0.002676)"
fill="#000000" stroke="none">
<path d="M20 2995 l0 -2975 2975 0 2975 0 0 2975 0 2975 -2975 0 -2975 0 0
-2975z m2722 1271 c140 -27 255 -77 364 -160 88 -66 155 -149 207 -258 23 -48
44 -87 48 -88 3 0 15 21 28 48 103 212 298 378 521 442 95 28 325 38 436 20
210 -33 408 -145 519 -292 61 -80 118 -201 147 -309 21 -82 22 -101 25 -746
l4 -663 170 0 169 0 0 -275 0 -275 -524 0 -525 0 -3 813 c-4 803 -4 813 -26
892 -54 191 -133 277 -288 310 -87 18 -141 18 -228 0 -139 -29 -233 -100 -291
-218 -69 -143 -69 -135 -73 -714 l-3 -523 165 0 166 0 0 -275 0 -275 -525 0
-524 0 -3 813 c-4 796 -4 814 -25 889 -28 97 -54 149 -105 204 -113 122 -343
148 -525 59 -113 -56 -183 -149 -225 -302 -21 -75 -22 -101 -26 -595 l-3 -518
240 0 241 0 0 -275 0 -275 -770 0 -770 0 0 275 0 275 165 0 165 0 0 710 0 710
-165 0 -165 0 0 270 0 270 525 0 525 0 0 -187 0 -186 41 59 c122 176 311 304
514 347 91 20 311 21 407 3z"/>
</g>
</svg>
