<svg id="Layer_1" data-name="Layer 1" xmlns="http://www.w3.org/2000/svg" viewBox="0 0 362.84 103.75"><defs><style>.cls-1{fill:#ffed00;}</style></defs><title>moz-logo-yell-rgb</title><rect width="362.84" height="103.75"/><path class="cls-1" d="M586,320.51a6.85,6.85,0,0,1-1.91.3c-2.11,0-3.12-.91-3.12-3.52V297.57c0-10.37-8.25-15.4-18-15.4-7.45,0-11.47.91-19.42,4.13l-1.77,10.44,10.37,1.11,1.47-5.11a14.09,14.09,0,0,1,6.94-1.31c7.35,0,7.45,5.53,7.45,10.16v1.51a59.38,59.38,0,0,0-7.45-.4c-10.37,0-21.13,2.62-21.13,13.79,0,9.46,7.45,13,14,13,7.35,0,12-4.43,14.59-9.06.6,5.54,3.93,9.06,10,9.06a17.53,17.53,0,0,0,8.15-2.11Zm-27.88-.3c-3.92,0-5.33-2.32-5.33-5.23,0-4.93,4-6.24,8.66-6.24a47.88,47.88,0,0,1,6.54.6C567.71,316.89,562.78,320.21,558.15,320.21Zm-17.43-61L521.1,328.46H508.32l19.63-69.24Zm-26.37,0-19.62,69.24H481.95l19.62-69.24Zm-54.49,23.85h13.59v16.3H459.86Zm0,29.09h13.59v16.3H459.86Zm-19.77-.6,10.26,1-2.82,15.9H407.88l-1.31-6.84,25-28.68H417.34l-2,7L406,299l1.61-15.9h39.85l1,6.84L423.28,318.6H438Zm-65-29.39c-16.3,0-24.36,11-24.36,24.26,0,14.49,9.66,23,23.65,23,14.49,0,25-9.16,25-23.65C399.3,293.14,391.35,282.17,375,282.17Zm-.3,37.34c-7,0-10.67-6-10.67-13.89,0-8.55,4.13-13.49,10.77-13.49,6.14,0,11.07,4.13,11.07,13.28C385.91,314.07,381.48,319.51,374.74,319.51ZM339,318.6h6v9.86H326V302.9c0-7.85-2.62-10.87-7.75-10.87-6.24,0-8.76,4.43-8.76,10.77v15.8h6v9.86h-19V302.9c0-7.85-2.62-10.87-7.75-10.87-6.24,0-8.76,4.43-8.76,10.77v15.8h8.66v9.86H261V318.6h6V292.94h-6v-9.86h19v6.84c2.72-4.83,7.45-7.75,13.79-7.75,6.54,0,12.58,3.12,14.79,9.76a15.21,15.21,0,0,1,14.79-9.76c8.15,0,15.6,4.93,15.6,15.7Z" transform="translate(-239.47 -246.03)"/></svg>